<?xml version="1.0" encoding="UTF-8"?>
<svg id="Layer_2" data-name="Layer 2" xmlns="http://www.w3.org/2000/svg" viewBox="0 0 689.13 306.35">
  <defs>
    <style>
      .cls-1 {
        fill: #d92b2e;
      }

      .cls-2 {
        letter-spacing: -.1em;
      }

      .cls-3 {
        fill: #fff;
        font-family: LEMONMILK-MediumItalic, 'LEMON MILK';
        font-size: 34px;
        font-style: italic;
        font-weight: 500;
      }

      .cls-4 {
        letter-spacing: -.07em;
      }
    </style>
  </defs>
  <g id="Layer_1-2" data-name="Layer 1">
    <g>
      <path class="cls-1" d="m420.35,13.49c4.14-3.22,9.06-5.36,14.72-7.09,2.94-.9,5.95-.21,8.04-1.64.2-.69.38-1.28,0-1.91-.95-1.54-3.51-.34-5.45-.68-2.36-.68-4.72-1.36-7.09-2.04-2.86-.05-5.72-.09-8.59-.14-4.09.14-8.18.27-12.27.41-6.27,1.06-13.82.95-21.26.95-7.57,0-14.11.14-21.81.14-4.18-.09-8.36-.18-12.54-.27h-14.99c-6.35,1.03-14.2.34-20.72,1.5-3.04-.09-6.09-.18-9.13-.27-7.54.96-15.21.32-23.44.41-4.51.05-9.06.7-13.49,0-3.59.05-7.18.09-10.77.14-3.66-.6-8.46.15-11.31-.14-1.91-.14-3.82-.27-5.72-.41-4.22.18-8.45.36-12.68.55-1.09-.41-2.18-.82-3.27-1.23-2.59-.27-5.18-.55-7.77-.82-3.23.09-6.45.18-9.68.27-5.15-.83-10.38-.6-15.4.14-.14.23-.27.45-.41.68.79,3.12,2.94,5.23,3.82,8.04v9c2.88,10.41,12.63,11.12,24.94,9,4.53-.78,11.23.47,12.95-3,1.98-4.96-5.69-6.32-3.27-10.36,1.15-2.33,11.88-.86,14.99-1.36,6.65-1.07,16.36-.96,22.22.41h6.81c3.63.58,8.64.73,12.4.14,5.01-.79,11.99-.82,12.68,3.68-1.26,2.56-3.93,4.44-4.22,7.63-.43,4.64,3.77,10.23,2.18,15.4-1.6,5.2-6.73,12.05-10.22,15.67-1.57,1.62-4.14,2.82-4.91,5.18-1.26,3.87-.55,9.36-.55,14.04,0,6.42-.78,15.19.41,21.53.49,2.63,2.3,3.48,2.32,6.54-.41.45-.82.91-1.23,1.36-1.34,3.28,4.66,9.56,5.45,12.27,1.02,3.48-3.29,3.39-4.23,5.04-.55.97-.6,8.58-.27,10.22,1.06,5.39,1.17,13.88,3,18.4,1.11,2.73,5.68,6.33,6.13,8.18.73,2.98-1.9,4.79-2.45,6.81-.18,1.5-.36,3-.55,4.5.05,2.36.09,4.72.14,7.09.49,5.23.18,16.35-1.23,21.26-.71,2.47-3.73,8.96-2.86,11.86.88,2.92,6.66,8.62,9,10.49,1.34,1.07,3.33,2.66,3.95,4.36,1.55,4.28-2.18,7.83-1.64,11.72.7,4.93,3.33,7.2,4.36,11.58,1.21,5.16.21,9.78,2.73,13.36.82.21,1.2.21,2.04,0,2.31-3.65,2.18-7.83,3.27-13.08,1.37-6.6,1.21-15.44,2.18-23.03v-4.77c.23-3.86.45-7.72.68-11.58-.05-2.23-.09-4.45-.14-6.68.85-5.21.55-10.31.55-15.67-.05-3.72-.09-7.45-.14-11.18v-10.22c0-7-.09-14.15-.82-20.03-.23-7-.45-13.99-.68-20.99-1.09-6.96,1.46-15.09,1.23-21.13-.16-4.04.92-9.3,1.77-12.95.14-1.95.27-3.91.41-5.86,1.2-6.29,2.05-13.87,3.27-20.44,1.6-8.6,2.14-16.37,1.91-26.58-.06-2.59-1.2-10.79-.14-12.4,3.71-5.63,11.03-2.78,18.94-4.09,14.31-2.36,34.58-2.55,48.11.55,2.6.6,4.53.21,6.68.82,3.43.96,14.55,6.06,17.85,4.36,1.22-.92.77-3.92,1.23-5.59.82-2.98,1.8-6.37,3.95-8.04h0Zm264.27,51.79c0-6.17.11-12.46-.82-18.13-.09-2-.18-4-.27-6-1.41-1.82-2.82-3.63-4.23-5.45-3.16-2.42-6.5,3.22-9.13,4.09-1.34.44-2.88.12-4.23-.14-.09-.14-.18-.27-.27-.41-.51-3.03,2.07-5.26,1.23-8.72-2.08-8.53-7.29-15.12-9.95-22.9-.82-.18-1.64-.36-2.45-.55-1.85.79-3.62.9-5.32,1.64-11.04,4.78-22.24,10.48-34.35,14.31-3.36.86-6.72,1.73-10.09,2.59-1.41.05-2.82.09-4.23.14-.59.41-1.18.82-1.77,1.23-.95.18-1.91.36-2.86.55-1.38.93-1.68,3.33-2.59,4.77-2.77,4.39-4.6,9.23-7.22,14.04-4.95,9.1-8.89,18.68-12.95,28.62-1.5,3.32-3,6.63-4.5,9.95-2.56,7.02-4.59,14.49-8.04,20.58h-.55c-.75-3.58-.58-8.02-.27-11.72-.05-4.68-.09-9.36-.14-14.04-.25-14.2-.78-31.74-.68-47.02.05-8.11,2.51-16.49,1.23-23.17-2.18-.15-10.8,6.37-12.81,7.9-3.27,2-6.54,4-9.81,6-6.31,4.21-12.96,8.82-19.22,13.22-2.64,1.85-8.8,4.56-10.36,7.09-.83,1.34-.34,12.98.14,14.86.36.5.73,1,1.09,1.5,4.87,1.11,10.12-2.85,15.95-2.86,2.9,2.01,1.52,11.15,2.32,15.54,1,5.53.35,12.97-1.91,16.63-1.02,1.66-2.33,2.72-3,4.91-1.55,5.08-.68,12.21-.68,18.13-.05,2.45-.09,4.91-.14,7.36,2.43,14.46-.84,28.56-5.04,38.57-1.06,2.54-3.49,4.44-4.09,7.5-.47,2.42.35,5.05.68,6.95.05,1.91.09,3.82.14,5.72.32,2.14.64,4.27.95,6.41.27,5.31.55,10.63.82,15.95.32,1.14.64,2.27.95,3.41.23,4.54.45,9.09.68,13.63.65,4.11-.46,8.85.41,13.08.77,2.68,1.54,5.36,2.32,8.04-.05,1.23-.09,2.45-.14,3.68.86,5.6.67,12.59,3,16.9,2.19-.33,2.5-1.76,3.82-2.86,6.45-5.42,7.37-11.75,9.81-21.13,1.73-6.62,1.93-14.35,3.27-21.53.36-1.86.73-3.73,1.09-5.59-.25-6.75.43-15.49,1.5-21.94.09-2.54.18-5.09.27-7.63.7-4.03,1.21-8.4,2.45-12.27,1.48-4.61,4.45-9.09,7.09-12.68h.55c2.67,2.39,5.99,18.54,7.5,23.58,1.32,4.4,2.93,10,4.23,14.45.27,1.45.55,2.91.82,4.36,3.8,10.46,7.9,21.34,12.81,31.07,1.62,3.21,7.08,15.21,9.68,16.22,2.83-.21,13.47-10.08,15.67-12.27,2.09-1.54,4.18-3.09,6.27-4.63,2.68-2.07,5.03-4.42,7.77-6.54,5.89-4.55,11.09-10.34,17.04-14.86,1.73-1.36,3.45-2.73,5.18-4.09.77-.95,1.54-1.91,2.32-2.86,1.15-.91,2.88-1.66,3.54-3,1.01-2.05-.24-7.97-.27-10.22-.07-4.45-.9-12.03-1.77-16.63-.18-2.91-.36-5.82-.55-8.72-.19-.52,0-.28-.41-.55-1.82-1.01-8.37,6.83-9.81,8.18-8.48,7.92-16.48,16.47-25.62,23.71-1.38,1.09-6.41,7.41-8.72,6.27-.97-.48-1.43-1.99-2.04-2.86-3.63-5.17-5.65-13.33-7.22-20.44-.32-2.82-.64-5.63-.95-8.45-8.08-35.97,7.33-66.37,21.53-86.82,3.55-5.1,6.13-10.68,9.81-15.54,1.08-1.43,1.97-4.04,3.54-4.91,3.41-.14,6.81-.27,10.22-.41,2.25-.37,5.18-.99,7.9-.55,1.91.09,3.82.18,5.72.27,5.91-.96,13.1-.63,17.85.68.75,2.13-.04,5.42-.41,7.77-.05,3-.09,6-.14,9-1.55,9.84,3.32,23.43.27,32.16-1.27,3.65-6.75,13.16-1.77,16.35,3.03-.22,4.88-2.07,7.22-3,2.99.39,4.15,3.03,7.77,3.13.91-.95,1.82-1.91,2.73-2.86,3.26-5.78,3.39-14.43,4.77-21.81v-3.82c.17-.71.7-.81.95-1.23v-20.85c-.95-1.63-1.09-5.05-1.09-8.04h0Zm-187.4,4.77c-1.87-9.98-2.56-24.27-3.95-33.8-.27-7-.55-13.99-.82-20.99-1.15-2.34-6.42-2.04-9.95-2.04-6.36-.32-12.72-.64-19.08-.95-1.82.14-3.63.27-5.45.41-1.36.25-1.89,1-2.86,1.36-2.07.77-3.78.55-5.45,1.5-2.28,1.29-4.46,3.98-5.59,6.41-.82,1.75-1.21,3.77-2.73,4.77-2.36.27-4.73.55-7.09.82-.57,1.98.14,3.32.82,4.63,3.76,7.35,20.89,3.48,28.89,7.22.82.38,1.98.64,2.45,1.36.79,1.22.29,2.87.55,4.36.85,4.99.63,9.68,1.5,14.86.41,3.36.82,6.72,1.23,10.09.05,1.64.09,3.27.14,4.91.79,4,.55,8.57,1.36,13.08.88,4.92,1.86,11.63,2.59,16.9.86.6,2.02,1.17,3.13,1.5.34.49.5.49.55,1.36-2.23,2.33-5.37,3.39-8.31,5.04-4.41,2.95-8.81,5.91-13.22,8.86-2.23,2.04-4.45,4.09-6.68,6.13-1.57,2.06-2.47,4.38-4.91,5.59-.68-.18-1.36-.36-2.04-.55-1.32-2.24-.05-6.74-.95-9.54-.74-2.29-1.13-5.21-1.64-8.31-.09-2.36-.18-4.72-.27-7.09-.41-1-.82-2-1.23-3-.18-3.32-.36-6.63-.55-9.95-.09-4.36-.18-8.72-.27-13.08.05-1.14.09-2.27.14-3.41-.4-1.71-1.75-1.62-1.77-4.09-.05-6.98.62-13.05-.41-19.49-.63-3.93.74-7.92-1.64-9.95-1.89-.32-3.16.59-4.63.95-3.51.88-6.89,1.51-10.09,2.04-.81,1.4-1.2,5.16-.95,7.36.27,8.27.55,16.54.82,24.8.18,3.5.36,7,.55,10.49-.05.14-.09.27-.14.41-1.04.21-1.91.17-2.73-.14-1.28,1.26-.92,7.11-.55,9.4.97,5.96.62,13.47,1.64,19.49.14,3.13.27,6.27.41,9.4.78,4.5.87,10.08,1.64,14.86.05,1.82.09,3.63.14,5.45,2.79,16.12,2.59,34.34,5.32,50.56v5.59c.59,5.18,1.18,10.36,1.77,15.54,1.32,7.64.6,15.45,1.77,22.76.68,4.25-.05,8.57,1.36,11.72,3.41-1.2,7.89-11.78,9.54-15.4,2.78-6.1,6.54-11.91,10.09-17.31,1.5-2.29,2.21-4.8,3.82-6.95,2.41-3.25,7.29-8.81,8.18-13.08.54-2.62-1.62-5.88-2.32-7.77-1.95-1.11-5.23-.79-8.04-1.09-1.46-2.58.3-7.16-.27-10.63-.27-8.81-.55-17.63-.82-26.44-.14-3.27-.27-6.54-.41-9.81.88-2.01,6.87,2.5,10.49,1.5,1.45-.91,2.91-1.82,4.36-2.73,6.21-4.73,11.24-10.93,16.9-16.22,5.48-5.13,11.13-9.87,15.95-15.67,1.39-1.67,3.59-2.87,4.91-4.63,2.28-3.04,5.66-8.23,3.41-13.63-3.41-8.17-6.81-16.28-8.59-25.76h0Zm-254.86,14.62c-1.54-8.25-2.11-20.05-3.27-27.93-.23-5.78-.45-11.56-.68-17.34-.95-1.93-5.31-1.69-8.22-1.69-5.26-.26-10.51-.53-15.77-.79-1.5.11-3,.23-4.5.34-1.12.2-1.56.83-2.37,1.13-1.71.63-3.12.46-4.5,1.24-1.88,1.07-3.69,3.29-4.62,5.29-.67,1.45-1,3.12-2.25,3.94-1.95.23-3.9.45-5.86.68-.47,1.63.12,2.74.68,3.83,3.11,6.07,17.26,2.88,23.88,5.97.68.32,1.64.53,2.03,1.13.65,1.01.24,2.37.45,3.6.7,4.12.52,8,1.24,12.28.34,2.78.68,5.56,1.01,8.33.04,1.35.08,2.7.11,4.05.65,3.3.46,7.08,1.13,10.81.73,4.06,1.54,9.61,2.14,13.96.71.5,1.67.97,2.59,1.24.28.4.41.41.45,1.13-1.84,1.93-4.43,2.8-6.87,4.17-3.64,2.44-7.28,4.88-10.92,7.32-1.84,1.69-3.68,3.38-5.52,5.07-1.3,1.71-2.04,3.62-4.05,4.62-.56-.15-1.13-.3-1.69-.45-1.09-1.85-.05-5.57-.79-7.88-.61-1.89-.93-4.3-1.35-6.87-.08-1.95-.15-3.9-.23-5.86-.34-.83-.68-1.65-1.01-2.48-.15-2.74-.3-5.48-.45-8.22-.08-3.6-.15-7.21-.23-10.81.04-.94.08-1.88.11-2.82-.33-1.41-1.45-1.34-1.46-3.38-.04-5.76.51-10.78-.34-16.1-.52-3.25.61-6.54-1.35-8.22-1.56-.26-2.61.48-3.83.79-2.9.73-5.7,1.25-8.33,1.69-.67,1.16-.99,4.26-.79,6.08.23,6.83.45,13.67.68,20.5.15,2.89.3,5.78.45,8.67-.04.11-.08.23-.11.34-.86.18-1.58.14-2.25-.11-1.06,1.04-.76,5.87-.45,7.77.8,4.92.51,11.13,1.35,16.1.11,2.59.23,5.18.34,7.77.64,3.72.72,8.33,1.35,12.28.04,1.5.08,3,.11,4.5,2.3,13.32,2.14,28.38,4.39,41.78v4.62c.49,4.28.98,8.56,1.46,12.84,1.09,6.31.5,12.76,1.46,18.81.56,3.51-.04,7.08,1.13,9.69,2.82-.99,6.52-9.73,7.88-12.73,2.3-5.04,5.4-9.84,8.33-14.3,1.24-1.89,1.83-3.96,3.15-5.74,1.99-2.68,6.02-7.28,6.76-10.81.45-2.16-1.34-4.85-1.91-6.42-1.61-.92-4.32-.66-6.64-.9-1.2-2.13.24-5.92-.23-8.78-.23-7.28-.45-14.57-.68-21.85-.11-2.7-.23-5.41-.34-8.11.73-1.66,5.68,2.07,8.67,1.24,1.2-.75,2.4-1.5,3.6-2.25,5.13-3.91,9.29-9.03,13.96-13.4,4.53-4.24,9.19-8.16,13.18-12.95,1.15-1.38,2.96-2.38,4.05-3.83,1.88-2.51,4.67-6.8,2.82-11.26-2.82-6.75-5.63-13.45-7.1-21.29h0Zm-157.35-26.09c-1.87-9.98-2.56-24.27-3.95-33.8-.27-7-.55-13.99-.82-20.99-1.15-2.34-6.42-2.04-9.95-2.04-6.36-.32-12.72-.64-19.08-.95-1.82.14-3.63.27-5.45.41-1.36.25-1.89,1-2.86,1.36-2.07.77-3.78.55-5.45,1.5-2.28,1.29-4.46,3.98-5.59,6.41-.82,1.75-1.21,3.77-2.73,4.77-2.36.27-4.73.55-7.09.82-.57,1.98.14,3.32.82,4.63,3.76,7.35,20.89,3.48,28.89,7.22.82.38,1.98.64,2.45,1.36.79,1.22.29,2.87.55,4.36.85,4.99.63,9.68,1.5,14.86.41,3.36.82,6.72,1.23,10.09.05,1.64.09,3.27.14,4.91.79,4,.55,8.57,1.36,13.08.88,4.92,1.86,11.63,2.59,16.9.86.6,2.02,1.17,3.13,1.5.34.49.5.49.55,1.36-2.23,2.33-5.37,3.39-8.31,5.04-4.41,2.95-8.81,5.91-13.22,8.86-2.23,2.04-4.45,4.09-6.68,6.13-1.57,2.06-2.47,4.38-4.91,5.59-.68-.18-1.36-.36-2.04-.55-1.32-2.24-.05-6.74-.95-9.54-.74-2.29-1.13-5.21-1.64-8.31-.09-2.36-.18-4.72-.27-7.09-.41-1-.82-2-1.23-3-.18-3.32-.36-6.63-.55-9.95-.09-4.36-.18-8.72-.27-13.08.05-1.14.09-2.27.14-3.41-.4-1.71-1.75-1.62-1.77-4.09-.05-6.98.62-13.05-.41-19.49-.63-3.93.74-7.92-1.64-9.95-1.89-.32-3.16.59-4.63.95-3.51.88-6.89,1.51-10.09,2.04-.81,1.4-1.2,5.16-.95,7.36.27,8.27.55,16.54.82,24.8.18,3.5.36,7,.55,10.49-.05.14-.09.27-.14.41-1.04.21-1.91.17-2.73-.14-1.28,1.26-.92,7.11-.55,9.4.97,5.96.62,13.47,1.64,19.49.14,3.13.27,6.27.41,9.4.78,4.5.87,10.08,1.64,14.86.05,1.82.09,3.63.14,5.45,2.79,16.12,2.59,34.34,5.32,50.56v5.59c.59,5.18,1.18,10.36,1.77,15.54,1.32,7.64.6,15.45,1.77,22.76.68,4.25-.05,8.57,1.36,11.72,3.41-1.2,7.89-11.78,9.54-15.4,2.78-6.1,6.54-11.91,10.09-17.31,1.5-2.29,2.21-4.8,3.82-6.95,2.41-3.25,7.29-8.81,8.18-13.08.54-2.62-1.62-5.88-2.32-7.77-1.95-1.11-5.23-.79-8.04-1.09-1.46-2.58.3-7.16-.27-10.63-.27-8.81-.55-17.63-.82-26.44-.14-3.27-.27-6.54-.41-9.81.88-2.01,6.87,2.5,10.49,1.5,1.45-.91,2.91-1.82,4.36-2.73,6.21-4.73,11.24-10.93,16.9-16.22,5.48-5.13,11.13-9.87,15.95-15.67,1.39-1.67,3.59-2.87,4.91-4.63,2.28-3.04,5.66-8.23,3.41-13.63-3.41-8.17-6.81-16.28-8.59-25.76h0Zm323.35,76.48c-1.08-6.79-.64-13.28-2.32-18.81-1.34-4.42-3.48-9.48-5.86-13.08-.84-1.27-3.6-2.84-3.13-4.77.91-1.46,5.11-.93,6.54-2.59.69-4.03-1.94-12.54,1.91-14.17-.5-1.41-5.91-5.98-7.22-7.63-5.53-6.96-11.01-14.49-17.31-20.72-2.48-2.45-3.87-5.6-8.86-5.59-13.61,6.45-20.27,22.6-26.85,36.25-1.54,3.04-3.09,6.09-4.63,9.13-3.57,4.95-8.02,7.84-10.09,14.58-1.18,3.85-1.21,9.46-1.23,14.17v6.13c-.66,4.15.43,8.9-.27,13.36-.67,4.23-1.06,11.83-.41,16.08.54,3.49-.2,7.8.27,10.9.69,4.53-.54,8.51.55,12.54.87,3.24,5.85,6.8,7.9,9.27,6.03,7.24,13.54,13.27,19.63,20.44,2.59,3.06,5.31,5.92,8.04,8.86,1.82,1.96,4.45,3.36,6.13,5.45,1.31,1.63,5.65,6.43,7.77,6.81,2.75.5,4.83-3.07,4.36-5.45-.32-1.36-.64-2.73-.95-4.09-.56-1.01-1.86-1.46-2.18-2.73.05-1.04.09-2.09.14-3.13.02-4.95.14-8.41,1.77-11.45,1.09-1.32,2.18-2.64,3.27-3.95,3-4.44,5.64-8.53,8.72-12.81,2.84-3.94,6.18-7.4,8.72-11.72,1.78-3.03,5.48-5.74,5.86-10.09.5-5.73.56-15.39-.41-21.67.05-3.18.09-6.36.14-9.54h0Zm-22.35,31.76c-1.27,4.48-4.98,17.65-9.27,18.4-4.55.8-10.43-6.25-13.22-8.04-3.16-2.03-11.03-7.6-12.27-11.04-1.79-4.98-.16-12.7-1.09-18.81-.14-8.95-.27-17.9-.41-26.85,0-4.2-.73-10.04.41-13.77,1.84-6.01,4.82-11.25,7.9-16.22,1-1.61,2.41-6.65,3.41-7.63,3.44,0,4.67,2.38,7.09,3.41,6.04,2.58,11.46,4.12,13.9,10.22.76,1.9,2.06,7.54,1.64,10.09-.05,2.41-.09,4.82-.14,7.22.23,4.09.45,8.18.68,12.27v6c.09,3.27.18,6.54.27,9.81v10.36c.68,2.82,1.36,5.63,2.04,8.45.42,2.2-.48,4.46-.95,6.13h0Zm-215.19-37.4c-1.08-6.79-.64-13.28-2.32-18.81-1.34-4.42-3.48-9.48-5.86-13.08-.84-1.27-3.6-2.84-3.13-4.77.91-1.46,5.11-.93,6.54-2.59.69-4.03-1.94-12.54,1.91-14.17-.5-1.41-5.91-5.98-7.22-7.63-5.53-6.96-11.01-14.49-17.31-20.72-2.48-2.45-3.87-5.6-8.86-5.59-13.61,6.45-20.27,22.6-26.85,36.25-1.54,3.04-3.09,6.09-4.63,9.13-3.57,4.95-8.02,7.84-10.09,14.58-1.18,3.85-1.21,9.46-1.23,14.17v6.13c-.66,4.15.43,8.9-.27,13.36-.67,4.23-1.06,11.83-.41,16.08.54,3.49-.2,7.8.27,10.9.69,4.53-.54,8.51.55,12.54.87,3.24,5.85,6.8,7.9,9.27,6.03,7.24,13.54,13.27,19.63,20.44,2.59,3.06,5.31,5.92,8.04,8.86,1.82,1.96,4.45,3.36,6.13,5.45,1.31,1.63,5.65,6.43,7.77,6.81,2.75.5,4.83-3.07,4.36-5.45-.32-1.36-.64-2.73-.95-4.09-.56-1.01-1.86-1.46-2.18-2.73.05-1.04.09-2.09.14-3.13.02-4.95.14-8.41,1.77-11.45,1.09-1.32,2.18-2.64,3.27-3.95,3-4.44,5.64-8.53,8.72-12.81,2.84-3.94,6.18-7.4,8.72-11.72,1.78-3.03,5.48-5.74,5.86-10.09.5-5.73.56-15.39-.41-21.67.05-3.18.09-6.36.14-9.54h0Zm-22.35,31.76c-1.27,4.48-4.98,17.65-9.27,18.4-4.55.8-10.43-6.25-13.22-8.04-3.16-2.03-11.03-7.6-12.27-11.04-1.79-4.98-.16-12.7-1.09-18.81-.14-8.95-.27-17.9-.41-26.85,0-4.2-.73-10.04.41-13.77,1.84-6.01,4.82-11.25,7.9-16.22,1-1.61,2.41-6.65,3.41-7.63,3.44,0,4.67,2.38,7.09,3.41,6.04,2.58,11.46,4.12,13.9,10.22.76,1.9,2.06,7.54,1.64,10.09-.05,2.41-.09,4.82-.14,7.22.23,4.09.45,8.18.68,12.27v6c.09,3.27.18,6.54.27,9.81v10.36c.68,2.82,1.36,5.63,2.04,8.45.42,2.2-.48,4.46-.95,6.13h0Z"/>
      <text class="cls-3" transform="translate(1.59 296.94)"><tspan x="0" y="0">A MYS</tspan><tspan class="cls-2" x="107.31" y="0">P</tspan><tspan class="cls-4" x="125.01" y="0">A</tspan><tspan x="148.1" y="0">CE ERA LIVE MUSIC EXPERIENCE</tspan></text>
    </g>
  </g>
</svg>